<?xml version="1.0" encoding="UTF-8" standalone="no"?>
<!-- Created with Inkscape (http://www.inkscape.org/) -->

<svg
   xmlns:dc="http://purl.org/dc/elements/1.1/"
   xmlns:cc="http://creativecommons.org/ns#"
   xmlns:rdf="http://www.w3.org/1999/02/22-rdf-syntax-ns#"
   xmlns:svg="http://www.w3.org/2000/svg"
   xmlns="http://www.w3.org/2000/svg"
   xmlns:sodipodi="http://sodipodi.sourceforge.net/DTD/sodipodi-0.dtd"
   xmlns:inkscape="http://www.inkscape.org/namespaces/inkscape"
   width="744.09448819"
   height="1052.3622047"
   id="svg2"
   version="1.1"
   inkscape:version="0.48.2 r9819"
   sodipodi:docname="fixus.svg">
  <defs
     id="defs4" />
  <sodipodi:namedview
     id="base"
     pagecolor="#ffffff"
     bordercolor="#666666"
     borderopacity="1.0"
     inkscape:pageopacity="0.0"
     inkscape:pageshadow="2"
     inkscape:zoom="1.1064336"
     inkscape:cx="311.54845"
     inkscape:cy="841.14804"
     inkscape:document-units="px"
     inkscape:current-layer="layer1"
     showgrid="false"
     inkscape:window-width="1420"
     inkscape:window-height="713"
     inkscape:window-x="0"
     inkscape:window-y="0"
     inkscape:window-maximized="0" />
  <metadata
     id="metadata7">
    <rdf:RDF>
      <cc:Work
         rdf:about="">
        <dc:format>image/svg+xml</dc:format>
        <dc:type
           rdf:resource="http://purl.org/dc/dcmitype/StillImage" />
      </cc:Work>
    </rdf:RDF>
  </metadata>
  <g
     inkscape:label="Layer 1"
     inkscape:groupmode="layer"
     id="layer1">
    <text
       xml:space="preserve"
       style="font-size:82.91571045px;font-style:normal;font-variant:normal;font-weight:normal;font-stretch:normal;line-height:125%;letter-spacing:0px;word-spacing:0px;fill:#000000;fill-opacity:1;stroke:none;font-family:Sans;-inkscape-font-specification:Helvetica"
       x="17.883709"
       y="110.42274"
       id="text5080"
       sodipodi:linespacing="125%"><tspan
         sodipodi:role="line"
         id="tspan5082"
         x="17.883709"
         y="110.42274"
         style="font-size:149.24827576px;font-style:normal;font-variant:normal;font-weight:bold;font-stretch:normal;fill:#00112b;font-family:Apple LiGothic;-inkscape-font-specification:Apple LiGothic Bold">fi<tspan
   style="font-style:normal;font-variant:normal;font-weight:bold;font-stretch:normal;fill:#dbdee3;font-family:Apple LiGothic;-inkscape-font-specification:Apple LiGothic Bold"
   id="tspan5678">x</tspan>us</tspan></text>
    <text
       xml:space="preserve"
       style="font-size:153.09550476px;font-style:normal;font-variant:normal;font-weight:normal;font-stretch:normal;line-height:125%;letter-spacing:0px;word-spacing:0px;fill:#2a7fff;fill-opacity:1;stroke:none;font-family:Sans;-inkscape-font-specification:Helvetica"
       x="397.14734"
       y="441.98767"
       id="text5084"
       sodipodi:linespacing="125%"><tspan
         sodipodi:role="line"
         id="tspan5086"
         x="397.14734"
         y="441.98767" /></text>
    <path
       id="path5661"
       d="m 145.22088,75.857556 c -0.90193,-13.05583 -11.33102,-23.48687 -24.38899,-24.38899 v -8.41071 h -3.66981 v 8.41071 c -13.05718,0.90212 -23.487264,11.33316 -24.388984,24.38899 h -8.4109 v 3.67097 h 8.4109 c 0.90192,13.05797 11.331804,23.486874 24.388984,24.388794 v 8.4109 h 3.66981 v -8.4109 c 13.05797,-0.90192 23.48706,-11.330824 24.38899,-24.388794 h 8.41051 v -3.67097 h -8.41051 z m -10.23072,17.82749 c -3.69356,3.69356 -8.64061,6.10848 -14.15847,6.552544 V 89.962096 h -3.6698 v 10.275494 c -5.51668,-0.444064 -10.46374,-2.859184 -14.1575,-6.552544 -3.690244,-3.69141 -6.107314,-8.63868 -6.551564,-14.15632 h 10.276864 v -3.67098 H 96.452826 c 0.44425,-5.51667 2.86152,-10.46276 6.551564,-14.15749 3.69357,-3.69006 8.64082,-6.10615 14.1575,-6.54942 v 10.27451 h 3.6698 v -10.27451 c 5.51786,0.44307 10.46491,2.85936 14.15847,6.54942 3.68888,3.69473 6.10868,8.64082 6.55041,14.15749 H 131.2674 v 3.67098 h 10.27317 c -0.44173,5.51764 -2.86153,10.46491 -6.55041,14.15632 z"
       inkscape:connector-curvature="0"
       style="fill:#2a7fff" />
  </g>
</svg>
